HIERARCHY
ROOT pelvis
{
  OFFSET 0 100 0
  CHANNELS 6 Xposition Yposition Zposition Zrotation Xrotation Yrotation
  JOINT pelvis_right_femur
  {
    OFFSET -10.78128 -3.44521 -0.5502486
    CHANNELS 3 Zrotation Xrotation Yrotation
    JOINT right_femur_tibia
    {
      OFFSET -0.8047443 -44.0398 -0.1307829
      CHANNELS 3 Zrotation Xrotation Yrotation
      JOINT right_tibia_foot
      {
        OFFSET 3.006224 -47.83518 -5
        CHANNELS 3 Zrotation Xrotation Yrotation
        End Site
        {
          OFFSET 0 -5 15
        }
      }
    }
  }
  JOINT pelvis_left_femur
  {
    OFFSET 10.78128 -3.44521 -0.5502486
    CHANNELS 3 Zrotation Xrotation Yrotation
    JOINT left_femur_tibia
    {
      OFFSET 0.8047443 -44.0398 -0.1307829
      CHANNELS 3 Zrotation Xrotation Yrotation
      JOINT left_tibia_foot
      {
        OFFSET -4.370144 -48.10324 -4.275266
        CHANNELS 3 Zrotation Xrotation Yrotation
        End Site
        {
          OFFSET 0 -5 15
        }
      }
    }
  }
  JOINT pelvis_spine1
  {
    OFFSET 0 6.468898 -3.129235
    CHANNELS 3 Zrotation Xrotation Yrotation
    JOINT spine1
    {
      OFFSET 0 23.15396 4.99043
      CHANNELS 3 Zrotation Xrotation Yrotation
      JOINT spine2
      {
        OFFSET 0 20.79997 -5.064912
        CHANNELS 3 Zrotation Xrotation Yrotation
        JOINT neck
        {
          OFFSET 0 14.38658 9.616178
          CHANNELS 3 Zrotation Xrotation Yrotation
          End Site
          {
            OFFSET 0 20 0
          }
        }
      }
      JOINT right_manubrium
      {
        OFFSET -5.722621 16.35077 3.967754
        CHANNELS 3 Zrotation Xrotation Yrotation
        JOINT right_clavicle
        {
          OFFSET -13.16364 1.694482 -4.693211
          CHANNELS 3 Zrotation Xrotation Yrotation
          JOINT right_humerus
          {
            OFFSET -28.5034 -0.3100689 -2.792744
            CHANNELS 3 Zrotation Xrotation Yrotation
            JOINT right_radius
            {
              OFFSET -25.15693 0.02248979 -1.271978
              CHANNELS 3 Zrotation Xrotation Yrotation
              End Site
              {
                OFFSET -15 0 0
              }
            }
          }
        }
      }
      JOINT left_manubrium
      {
        OFFSET 5.722621 16.35077 3.967754
        CHANNELS 3 Zrotation Xrotation Yrotation
        JOINT left_clavicle
        {
          OFFSET 13.16364 1.694482 -4.693211
          CHANNELS 3 Zrotation Xrotation Yrotation
          JOINT left_humerus
          {
            OFFSET 29.39168 -1.063119 -2.237045
            CHANNELS 3 Zrotation Xrotation Yrotation
            JOINT left_radius
            {
              OFFSET 24.59957 -0.9528479 0.9047498
              CHANNELS 3 Zrotation Xrotation Yrotation
              End Site
              {
                OFFSET 15 -0 -0
              }
            }
          }
        }
      }
    }
  }
}
MOTION
Frames: 9
Frame Time: 0.0416666666667
0 103.5113 0 1.09412 -1.046792 -0.1298559 4.227691 -16.63544 11.14045 -0 39.55555 -0 -5.005363 -18.99786 -4.217983 -7.181317 10.7119 -24.40193 -0 7.345899 -0 10.82563 -15.46127 28.54905 -3.920848 -3.823711 4.824463 2.609891 9.453123 -7.522963 1.627763 22.12649 6.362769 2.791133 -24.41838 9.501387 6.637752 -20.02134 11.66127 85.11595 35.78699 -18.58327 -0 0 17.01376 -5.392612 7.638454 3.62464 5.120613 -18.34509 -1.83398 -94.27441 27.32778 22.71554 0 0 -15.32408 7.807167 16.67263 5.140678
0.2471776 103.4269 1.394092 0.9644782 -1.150354 -0.2142364 4.244835 -16.96828 10.76271 -0 39.84236 -0 -5.27203 -17.48223 -4.050125 -7.048238 10.71848 -23.98872 -0 7.303607 -0 10.17721 -15.82466 28.02592 -3.775689 -3.623297 4.694279 2.512228 9.563139 -7.493938 1.606059 22.10842 6.458566 2.879647 -24.46193 9.481015 6.473733 -20.00238 11.66435 85.37361 35.42726 -18.65203 -0 0 16.81476 -5.890238 7.716563 3.859907 5.16645 -18.58371 -1.964807 -94.23389 27.39245 22.71382 0 0 -15.46674 7.565157 16.63675 5.539758
0.5359966 103.2403 3.150225 0.5723685 -0.4951255 -0.1374953 4.600362 -20.10448 9.696355 -0 37.64147 -0 -5.70912 -14.18537 -3.252443 -6.816254 10.69904 -22.77138 -0 6.839895 -0 9.136615 -17.23647 26.4941 -3.429276 -3.023417 4.62438 2.410882 9.708349 -7.483494 1.58742 21.7148 6.781152 3.214742 -24.83499 9.577968 6.306531 -19.81432 11.63905 85.65133 35.2456 -18.864 -0 0 16.40167 -6.742011 8.118879 4.198547 5.749532 -19.46087 -1.965436 -93.57589 26.53919 22.02891 0 0 -16.58402 8.613947 16.23265 4.651514
0.8540889 102.9086 5.19412 0.229143 0.2543932 0.06352243 5.034435 -23.02806 8.989855 -0 34.81193 -0 -5.952968 -12.19346 -2.70363 -6.645174 10.90634 -21.91068 -0 6.51816 -0 8.079224 -18.66483 25.19513 -3.120405 -2.575022 4.630079 2.389239 9.655642 -7.515585 1.604235 21.36077 7.021527 3.47191 -25.18645 9.692068 6.144305 -19.61673 11.54016 85.85954 35.0866 -19.24174 -0 0 16.12973 -7.054184 8.340722 4.247624 6.294793 -20.14592 -1.843736 -93.22742 26.28956 21.57397 0 0 -17.84216 9.071389 16.00002 4.398535
1.197401 102.4066 7.540203 -0.1540492 1.215123 0.3713837 5.601011 -26.27928 8.37909 -0 31.13337 -0 -6.121761 -10.61127 -2.188883 -6.476599 11.2941 -21.08464 -0 6.311196 -0 6.861641 -20.2242 23.76633 -2.779074 -2.175901 4.667541 2.423631 9.499915 -7.604474 1.619754 20.95814 7.269052 3.731954 -25.59691 9.820925 5.98356 -19.37532 11.4072 86.07946 35.00194 -19.82198 -0 0 15.83953 -7.153439 8.534657 4.157741 6.893435 -20.85334 -1.640731 -92.93181 26.27162 21.12786 0 0 -19.44901 9.324283 15.81007 4.379553
1.554517 101.7339 10.22124 -0.5955681 2.222734 0.77925 6.255598 -29.49222 7.818458 -0 27.16072 -0 -6.318193 -9.103957 -1.725147 -6.268047 11.85443 -20.22343 -0 6.397543 -0 5.32499 -21.75911 22.12922 -2.376061 -1.820579 4.663012 2.479147 9.29024 -7.73645 1.62197 20.55849 7.517698 3.981314 -26.03558 9.935047 5.760443 -19.09409 11.24922 86.41214 34.8442 -20.58146 -0 0 15.43888 -7.200563 8.682547 4.02063 7.466502 -21.56833 -1.429773 -92.69488 26.53287 20.71836 0 0 -21.24619 9.228268 15.67369 4.761399
1.910273 100.917 13.28892 -1.108231 3.196977 1.279233 6.983405 -32.44376 7.294278 -0 23.18924 -0 -6.60385 -7.560726 -1.32441 -5.995083 12.57332 -19.2871 -0 6.967196 -0 3.423888 -23.10106 20.24336 -1.89666 -1.512965 4.574557 2.545013 9.047209 -7.906103 1.604797 20.18863 7.754379 4.201995 -26.48716 10.01904 5.451733 -18.76098 11.06774 86.89563 34.5698 -21.48356 -0 0 14.86021 -7.251353 8.773148 3.878475 7.963276 -22.26498 -1.238903 -92.49122 27.03986 20.32363 0 0 -23.09611 8.795935 15.5695 5.521483
2.246186 100.0103 16.81135 -1.691511 4.03575 1.856518 7.75515 -34.8331 6.798797 -0 19.55464 -0 -7.034147 -5.993085 -1.01924 -5.636547 13.4193 -18.25173 -0 8.276436 -0 1.183472 -24.00826 18.12591 -1.337457 -1.260745 4.359365 2.616148 8.781989 -8.103607 1.564466 19.88965 7.950736 4.359029 -26.91644 10.05564 5.043644 -18.35295 10.85856 87.54436 34.15622 -22.45074 -0 0 14.0317 -7.326186 8.786358 3.767135 8.318458 -22.88352 -1.088757 -92.27957 27.72344 19.88851 0 0 -24.78317 8.097108 15.45823 6.555061
2.5439 99.10212 20.86547 -2.31833 4.633585 2.479874 8.514664 -36.29241 6.322153 -0 16.60114 -0 -7.634797 -4.564243 -0.8498904 -5.186206 14.30911 -17.11167 -0 10.65271 -0 -1.219531 -24.15501 15.89427 -0.7201214 -1.081879 3.990097 2.69788 8.507249 -8.318524 1.492686 19.70819 8.070632 4.408033 -27.26319 10.02224 4.563093 -17.84062 10.62532 88.32984 33.66836 -23.36515 -0 0 12.8893 -7.422728 8.724079 3.722756 8.456872 -23.33761 -0.9900243 -91.98029 28.42083 19.31408 0 0 -26.03184 7.314947 15.27759 7.60236
